<svg xmlns="http://www.w3.org/2000/svg" viewBox="0 0 125 115"><defs><style>.cls-1{fill:#fff;}</style></defs><g id="Camada_2" data-name="Camada 2"><g id="Icon"><path class="cls-1" d="M124.38,45.27c-.15-.86-.3-1.73-.49-2.61q-.15-.64-.3-1.32l-.08-.33,0-.16,0-.14v0l0-.07-.17-.62-.35-1.25-.18-.63c0-.21-.15-.45-.22-.67L122,36l-.24-.69-.13-.35-.14-.33A51.94,51.94,0,0,0,116,24.2a53.91,53.91,0,0,0-8-9.28A55.6,55.6,0,0,0,87.61,2.8,54.71,54.71,0,0,0,77,.4L74.47.14,72,0c-.4,0-.8,0-1.2,0H69.64L68.48,0,67.36.1l-1.1.08c-.37,0-.72.05-1.08.09-.7.09-1.39.16-2.06.26-.33,0-.66.09-1,.15l-1,.17-1.24.23-.13,0-.45.1a54.09,54.09,0,0,0-9.55,3.25l-.93.45-.31.16L50.12,5A29.63,29.63,0,0,1,66,8.58l.1.06c.22.13.45.24.67.38l.66.4.68.41c.23.13.45.27.67.42,0,0,.16.14.34.32a28.6,28.6,0,0,1,6.8,29c-.26.81-.54,1.6-.81,2.32a13.87,13.87,0,0,1-4.79,6.42l0,0c-.62.46-1.26.86-1.9,1.25s-1.32.73-2,1a19.91,19.91,0,0,1-2.06.8c-.35.13-.7.21-1,.32s-.7.18-1.06.25a21.62,21.62,0,0,1-2.14.31c-.36,0-.71.06-1.07.06H57.93a19.73,19.73,0,0,1-4.3-.61,23.55,23.55,0,0,1-4.19-1.49,15.21,15.21,0,0,1-2.19-1.39,6.42,6.42,0,0,1-1.78-3.12,5,5,0,0,1,.83-4.67c3.32-4.13,8,4.68,8,4.68s2.52-8.14-8.51-13.32a11.43,11.43,0,0,1,6.91,2l1.67,1.17s-1-6.41-9.13-9.92a9.27,9.27,0,0,1,5.7,2.53l.55.54c-.38-6.24-7.76-8-8-8.43a25.85,25.85,0,0,1,5.75,1.62c-2.41-5.44-9.33-6.43-9.95-6.8a14.75,14.75,0,0,1,5.69.78C34.5,9,28,14.8,27.38,15.41c5.81-5.62-1.09-10.15-1.09-10.15,4.76,4.66-7.08,15.18-12.94,16C10.61,29.84,4.9,29.18,2.78,33.85c0,0,0,5.85,2.39,8.81,0,0,8.49-8.95,18.35-8h.08a5.69,5.69,0,0,1,5,6.85c-.45,2.11-.92,4.32-.95,4.36-.65.74-1.28,1.51-1.88,2.31S24.55,49.8,24,50.66s-1,1.75-1.48,2.67a27.35,27.35,0,0,0-1.21,2.83,28,28,0,0,0-.9,3,26.48,26.48,0,0,0-.54,3.06,22.84,22.84,0,0,0-.15,3.09,23,23,0,0,0,.85,6,24.69,24.69,0,0,0,2.22,5.43,24.1,24.1,0,0,0,1.53,2.42c.27.38.56.76.85,1.13s.6.72.91,1.07a21.54,21.54,0,0,0,2,2c0-.14-.07-.29-.11-.43A17.7,17.7,0,0,1,44.66,60.76l12.23-.28c.36,0,.72,0,1.08,0l.78,0,.77-.06c.51,0,1-.12,1.54-.18a28.14,28.14,0,0,0,3-.65,26.75,26.75,0,0,0,5.66-2.33,28.49,28.49,0,0,0,4.9-3.47,27.65,27.65,0,0,0,2.13-2.06c.67-.72,1.31-1.47,1.91-2.24s1.15-1.57,1.68-2.38,1-1.66,1.45-2.52A32.26,32.26,0,0,0,84,39.21c.28-.92.53-1.85.72-2.79a27.44,27.44,0,0,0,.45-2.86c0-.48.08-1,.11-1.44l0-.73v-.75c0-.12,0-.26,0-.37l0-.33,0-.33v-.39c0-.19,0-.38-.07-.56.17.34.34.68.5,1a45,45,0,0,1,4.11,16.65c0,.37,0,.75,0,1.12s0,.95,0,1.42v.71l-.06,1.24-.06,1.24c0,.36-.07.72-.11,1.08s-.06.67-.1,1l-.14,1.05c-.08.45-.13.9-.22,1.35s-.13.62-.19.93c-.13.8-.35,1.58-.54,2.37l-.14.56c-.05.19-.11.37-.17.56-.1.36-.21.73-.32,1.1s-.24.74-.37,1.1l-.38,1.09A44,44,0,0,1,61.49,90l-1.09.39c-.36.13-.72.26-1.09.36l-1.1.33c-.19.06-.37.12-.55.16l-.56.14c-.74.19-1.48.39-2.22.53l-1.12.22c-.37.08-.75.12-1.13.18a45.26,45.26,0,0,1-9,.44c-.35,0-.7,0-1.06-.06l-1.1-.1c-.36,0-.73-.06-1.09-.12l-1.09-.16c-.36-.06-.72-.1-1.07-.17l-1.07-.22c-.35-.07-.71-.12-1.06-.21l-1-.26a45.05,45.05,0,0,1-14.89-6.89,47,47,0,0,1-5.84-4.87A48.1,48.1,0,0,1,9.68,74.3c-.33-.45-.68-.9-1-1.35l-.9-1.36c-.16-.23-.29-.45-.43-.68L7,70.23l-.41-.67c-.13-.22-.25-.45-.37-.67a48.12,48.12,0,0,1-4.1-9.82A56.42,56.42,0,0,1,.57,52.26C.35,50.64.24,49.78.24,49.78l0,.64c0,.42-.1,1-.15,1.87,0,.41,0,.86,0,1.37s0,1.06,0,1.66,0,1.24.08,1.93.13,1.42.2,2.19A45.83,45.83,0,0,0,3,70.36a47.58,47.58,0,0,0,7.42,12.82A48.94,48.94,0,0,0,24,94.64a48.58,48.58,0,0,0,9,4l1.21.39c.4.13.81.23,1.22.34l1.24.32c.42.11.84.18,1.26.27l1.27.26c.42.09.85.14,1.28.21l1.29.2c.44.06.9.1,1.35.14a49.2,49.2,0,0,0,10.64,0c.48-.06,1-.1,1.44-.18l1.16-.18c.94-.13,1.87-.35,2.8-.54l.68-.15.67-.18,1.33-.37c.45-.11.89-.26,1.33-.41l1.32-.43a50.15,50.15,0,0,0,30.82-31c.14-.44.29-.88.43-1.33s.29-.88.41-1.33l.36-1.35.18-.67.14-.67c.19-.91.4-1.81.53-2.72l.21-1.36c.07-.45.11-.9.16-1.36l.15-1.35c0-.65.07-1.31.12-2l0-.87c0-.41,0-.83,0-1.24V49.7L98,48.36c0-.44,0-.89-.08-1.33s-.09-.88-.13-1.32a49,49,0,0,0-6.06-19.15A47.9,47.9,0,0,0,86.44,19l.41.4c.41.37.77.8,1.16,1.2.19.21.38.41.58.61l.29.31c.1.1.19.21.28.32l1.12,1.29.28.33.26.34c.18.22.36.45.53.68.74.89,1.39,1.86,2.08,2.81.37.52.7,1.07,1,1.6l.52.8.35.6a55.18,55.18,0,0,1,5.8,13.42,58.28,58.28,0,0,1,1.53,7.34c.07.63.15,1.25.22,1.88,0,.31.06.63.08.94l.07.94.07.95c0,.31,0,.63,0,1l0,1.81,0,2.05c0,.61,0,1.2-.1,1.82s-.09,1.26-.16,1.88l-.11.94c0,.31-.07.63-.12.94a54.62,54.62,0,0,1-1.53,7.34,55.16,55.16,0,0,1-5.79,13.42,56.83,56.83,0,0,1-18.29,18.72,58.73,58.73,0,0,1-9.59,4.92,62.46,62.46,0,0,1-8,2.59c-2.3.57-4.15.89-5.42,1.11l-1.95.3.5.06c.33,0,.83.11,1.47.17s1.45.13,2.39.15c.47,0,1,.05,1.52,0s1.12,0,1.73,0a51.51,51.51,0,0,0,8.8-1c1.68-.35,3.46-.83,5.32-1.41l1.4-.48c.48-.16,1-.35,1.43-.53s1-.39,1.46-.6l.74-.31.7-.31a58.29,58.29,0,0,0,5.94-3.17,56.43,56.43,0,0,0,24.07-31.07,56.17,56.17,0,0,0,2-8.57c.07-.37.11-.73.16-1.1l.14-1.1c.09-.74.14-1.48.21-2.22s.09-1.53.13-2.29l0-2.07-.06-2.3c0-.37,0-.74,0-1.11L112,54.19l-.08-1.11a10.46,10.46,0,0,0-.29-1.93l-.09-.82a8.39,8.39,0,0,0-.22-1.65l-.2-1.08-.2-1.09-.26-1.07c-.18-.72-.33-1.43-.53-2.14s-.42-1.4-.62-2.1A56.83,56.83,0,0,0,102,25.93l-.45-.66-.65-.89c-.46-.58-.88-1.17-1.34-1.73-.87-1-1.71-2.07-2.63-3a55.18,55.18,0,0,0-5.61-5.27c-1.06-.86-2.13-1.66-3.2-2.42Q91,13.4,93.71,15.16a60.05,60.05,0,0,1,8.21,6.41,57.29,57.29,0,0,1,12.27,16.35l.14.27.13.27.25.54.51,1.06c.08.19.17.34.25.55l.24.6.49,1.2.25.6,0,.07v0c0,.09,0-.09,0-.06l0,.14.1.28.41,1.11c.15.37.25.74.38,1.11s.24.74.37,1.1a61.71,61.71,0,0,1,2,8.49,63.25,63.25,0,0,1,.72,7.48c0,.56.05,1.11,0,1.64s0,1,0,1.54,0,1,0,1.42c0,.23,0,.45,0,.67l0,.64c0,.41,0,.8-.07,1.17s-.05.72-.08,1c-.05.64-.09,1.2-.15,1.65s-.07.8-.1,1l0,.36.16-.32.47-.92c.1-.21.22-.43.34-.68s.23-.54.37-.84.28-.64.42-1,.28-.73.43-1.13c.32-.8.59-1.71.91-2.7s.57-2.08.83-3.26A47.28,47.28,0,0,0,125,55,50.17,50.17,0,0,0,124.38,45.27Z"/></g></g></svg>